<svg xmlns="http://www.w3.org/2000/svg" width="1600" height="1000" viewBox="0 0 1600 1000"><defs><linearGradient id="sky" x2="0" y2="1"><stop stop-color="#181940"/><stop offset=".65" stop-color="#b246a0"/><stop offset="1" stop-color="#6be4e6"/></linearGradient><radialGradient id="sun"><stop stop-color="#6be4e6" stop-opacity=".5"/><stop offset="1" stop-color="#6be4e6" stop-opacity="0"/></radialGradient><linearGradient id="mist" x2="0" y2="1"><stop stop-color="#6be4e6" stop-opacity=".18"/><stop offset="1" stop-color="#181940" stop-opacity="0"/></linearGradient></defs><rect width="1600" height="1000" fill="url(#sky)"/><g fill="#fff3e8"><circle cx="1275" cy="261" r="1.6" opacity="0.68"/><circle cx="1515" cy="542" r="0.6" opacity="0.48"/><circle cx="510" cy="53" r="1.9" opacity="0.27"/><circle cx="960" cy="252" r="1.1" opacity="0.26"/><circle cx="510" cy="13" r="1.6" opacity="0.44"/><circle cx="372" cy="398" r="0.8" opacity="0.68"/><circle cx="284" cy="632" r="1.5" opacity="0.28"/><circle cx="3" cy="5" r="0.9" opacity="0.33"/><circle cx="339" cy="170" r="1.0" opacity="0.78"/><circle cx="1104" cy="640" r="0.9" opacity="0.76"/><circle cx="1414" cy="201" r="2.0" opacity="0.74"/><circle cx="611" cy="22" r="1.1" opacity="0.30"/><circle cx="298" cy="270" r="0.7" opacity="0.38"/><circle cx="1235" cy="600" r="0.6" opacity="0.61"/><circle cx="692" cy="67" r="1.0" opacity="0.69"/><circle cx="984" cy="323" r="0.9" opacity="0.48"/><circle cx="360" cy="58" r="1.0" opacity="0.76"/><circle cx="1535" cy="366" r="1.8" opacity="0.21"/><circle cx="857" cy="374" r="1.1" opacity="0.70"/><circle cx="927" cy="47" r="1.6" opacity="0.57"/><circle cx="402" cy="121" r="1.7" opacity="0.76"/><circle cx="946" cy="352" r="1.3" opacity="0.74"/><circle cx="513" cy="473" r="0.8" opacity="0.65"/><circle cx="752" cy="302" r="0.7" opacity="0.77"/><circle cx="186" cy="213" r="1.1" opacity="0.57"/><circle cx="303" cy="348" r="1.0" opacity="0.62"/><circle cx="188" cy="319" r="1.6" opacity="0.38"/><circle cx="160" cy="641" r="0.8" opacity="0.61"/><circle cx="990" cy="165" r="1.6" opacity="0.25"/><circle cx="1230" cy="546" r="1.9" opacity="0.22"/><circle cx="1516" cy="608" r="1.1" opacity="0.35"/><circle cx="1333" cy="431" r="0.8" opacity="0.79"/><circle cx="1307" cy="33" r="1.7" opacity="0.40"/><circle cx="424" cy="133" r="2.0" opacity="0.54"/><circle cx="271" cy="645" r="1.9" opacity="0.45"/><circle cx="345" cy="444" r="1.1" opacity="0.24"/><circle cx="861" cy="301" r="0.8" opacity="0.75"/><circle cx="1270" cy="173" r="2.0" opacity="0.47"/><circle cx="999" cy="325" r="1.3" opacity="0.37"/><circle cx="826" cy="150" r="0.8" opacity="0.69"/><circle cx="1089" cy="183" r="1.5" opacity="0.50"/><circle cx="693" cy="184" r="0.7" opacity="0.36"/><circle cx="1122" cy="514" r="1.1" opacity="0.67"/><circle cx="1586" cy="364" r="1.6" opacity="0.60"/><circle cx="1555" cy="313" r="1.1" opacity="0.62"/><circle cx="575" cy="497" r="1.0" opacity="0.79"/><circle cx="1466" cy="300" r="1.9" opacity="0.40"/><circle cx="365" cy="594" r="1.8" opacity="0.48"/><circle cx="1584" cy="256" r="1.1" opacity="0.36"/><circle cx="591" cy="512" r="1.5" opacity="0.68"/><circle cx="712" cy="280" r="1.5" opacity="0.64"/><circle cx="836" cy="358" r="1.9" opacity="0.30"/><circle cx="1409" cy="460" r="2.0" opacity="0.77"/><circle cx="1061" cy="145" r="1.3" opacity="0.30"/><circle cx="741" cy="488" r="1.0" opacity="0.25"/><circle cx="1373" cy="426" r="0.8" opacity="0.67"/><circle cx="1189" cy="528" r="1.5" opacity="0.45"/><circle cx="1277" cy="566" r="1.7" opacity="0.58"/><circle cx="1475" cy="28" r="0.9" opacity="0.55"/><circle cx="1278" cy="185" r="0.9" opacity="0.61"/><circle cx="1292" cy="42" r="2.0" opacity="0.79"/><circle cx="339" cy="55" r="1.8" opacity="0.27"/><circle cx="371" cy="494" r="0.9" opacity="0.22"/><circle cx="952" cy="359" r="1.1" opacity="0.57"/><circle cx="1208" cy="209" r="0.9" opacity="0.74"/><circle cx="1" cy="358" r="1.2" opacity="0.37"/><circle cx="839" cy="117" r="1.6" opacity="0.53"/><circle cx="73" cy="563" r="1.5" opacity="0.26"/><circle cx="1116" cy="524" r="1.1" opacity="0.55"/><circle cx="720" cy="132" r="1.2" opacity="0.69"/><circle cx="1315" cy="551" r="1.1" opacity="0.29"/><circle cx="1220" cy="391" r="1.4" opacity="0.77"/><circle cx="272" cy="623" r="0.7" opacity="0.69"/><circle cx="1355" cy="0" r="1.1" opacity="0.40"/><circle cx="1259" cy="552" r="0.8" opacity="0.58"/><circle cx="1155" cy="384" r="1.2" opacity="0.79"/><circle cx="1010" cy="298" r="1.3" opacity="0.62"/><circle cx="786" cy="162" r="1.4" opacity="0.36"/><circle cx="616" cy="508" r="1.0" opacity="0.21"/><circle cx="629" cy="503" r="1.9" opacity="0.29"/><circle cx="48" cy="124" r="1.5" opacity="0.78"/><circle cx="502" cy="300" r="0.7" opacity="0.28"/><circle cx="803" cy="13" r="1.3" opacity="0.54"/><circle cx="498" cy="485" r="1.7" opacity="0.35"/><circle cx="548" cy="158" r="1.6" opacity="0.37"/><circle cx="1008" cy="622" r="2.0" opacity="0.51"/><circle cx="1236" cy="121" r="0.6" opacity="0.28"/><circle cx="578" cy="546" r="1.6" opacity="0.57"/><circle cx="1497" cy="542" r="0.6" opacity="0.41"/><circle cx="1396" cy="604" r="0.8" opacity="0.20"/></g><circle cx="1100" cy="350" r="450" fill="url(#sun)"/><circle cx="1100" cy="340" r="158" fill="#6be4e6" opacity=".88"/><path d="M0 640 160 560 230 596 420 390 560 568 690 480 850 600 1010 468 1270 650 1410 490 1600 610V1000H0Z" fill="#181940" opacity=".45"/><path d="M0 770 130 680 260 730 460 590 640 790 820 620 990 790 1190 650 1380 770 1600 655V1000H0Z" fill="#171a31" opacity=".68"/><path d="M0 840q280-150 610-30t990-20v210H0Z" fill="url(#mist)"/><rect x="0" y="713" width="47" height="287" fill="#151522"/><path d="M5 725v287" stroke="#6be4e6" opacity=".3"/><rect x="70" y="781" width="24" height="219" fill="#151522"/><path d="M75 793v219" stroke="#6be4e6" opacity=".3"/><rect x="140" y="781" width="52" height="219" fill="#151522"/><path d="M145 793v219" stroke="#6be4e6" opacity=".3"/><rect x="210" y="527" width="18" height="473" fill="#151522"/><path d="M215 539v473" stroke="#6be4e6" opacity=".3"/><rect x="280" y="649" width="67" height="351" fill="#151522"/><path d="M285 661v351" stroke="#6be4e6" opacity=".3"/><rect x="350" y="648" width="56" height="352" fill="#151522"/><path d="M355 660v352" stroke="#6be4e6" opacity=".3"/><rect x="420" y="724" width="62" height="276" fill="#151522"/><path d="M425 736v276" stroke="#6be4e6" opacity=".3"/><rect x="490" y="792" width="58" height="208" fill="#151522"/><path d="M495 804v208" stroke="#6be4e6" opacity=".3"/><rect x="560" y="762" width="48" height="238" fill="#151522"/><path d="M565 774v238" stroke="#6be4e6" opacity=".3"/><rect x="630" y="627" width="48" height="373" fill="#151522"/><path d="M635 639v373" stroke="#6be4e6" opacity=".3"/><rect x="700" y="630" width="61" height="370" fill="#151522"/><path d="M705 642v370" stroke="#6be4e6" opacity=".3"/><rect x="770" y="798" width="30" height="202" fill="#151522"/><path d="M775 810v202" stroke="#6be4e6" opacity=".3"/><rect x="840" y="581" width="47" height="419" fill="#151522"/><path d="M845 593v419" stroke="#6be4e6" opacity=".3"/><rect x="910" y="818" width="22" height="182" fill="#151522"/><path d="M915 830v182" stroke="#6be4e6" opacity=".3"/><rect x="980" y="585" width="71" height="415" fill="#151522"/><path d="M985 597v415" stroke="#6be4e6" opacity=".3"/><rect x="1050" y="431" width="62" height="569" fill="#151522"/><path d="M1055 443v569" stroke="#6be4e6" opacity=".3"/><rect x="1120" y="828" width="45" height="172" fill="#151522"/><path d="M1125 840v172" stroke="#6be4e6" opacity=".3"/><rect x="1190" y="728" width="36" height="272" fill="#151522"/><path d="M1195 740v272" stroke="#6be4e6" opacity=".3"/><rect x="1260" y="761" width="67" height="239" fill="#151522"/><path d="M1265 773v239" stroke="#6be4e6" opacity=".3"/><rect x="1330" y="671" width="37" height="329" fill="#151522"/><path d="M1335 683v329" stroke="#6be4e6" opacity=".3"/><rect x="1400" y="503" width="28" height="497" fill="#151522"/><path d="M1405 515v497" stroke="#6be4e6" opacity=".3"/><rect x="1470" y="674" width="62" height="326" fill="#151522"/><path d="M1475 686v326" stroke="#6be4e6" opacity=".3"/><rect x="1540" y="711" width="74" height="289" fill="#151522"/><path d="M1545 723v289" stroke="#6be4e6" opacity=".3"/><g fill="none" stroke="#6be4e6" stroke-width="2" opacity=".4"><path d="M660 520q280-50 720 0M350 580q330-30 610 10M900 690q200-20 470 7"/></g><path d="M0 946q300-140 620-32t980-58v144H0Z" fill="#101321"/><g transform="translate(1020 695)"><path d="M-22 210 5 68 34 61 62 207 12 189Z" fill="#191521"/><path d="M3 77-32 161-12 166 25 96 55 149 67 139 37 68Z" fill="#282034"/><path d="M17 64V49h16v18" fill="#b98c86"/><ellipse cx="23" cy="30" rx="21" ry="27" fill="#cda794"/><path d="M0 34-3 12 15-5 39 0 48 27 34 16 27 29 20 11 10 33Z" fill="#171523"/><path d="M6 194-2 257 12 257 24 206 34 254 47 254 41 194" fill="#12111b"/><path d="M-1 69q-45-1-82-40l-28 7q36 68 124 57" fill="#b246a0"/><path d="m57 145 100-97" stroke="#c0bdd4" stroke-width="4"/><path d="m46 143 23 18" stroke="#6be4e6" stroke-width="6"/><path d="M4 79 22 84 9 175" stroke="#6be4e6" stroke-width="2" fill="none" opacity=".6"/></g><g fill="#11131f"><path d="M1420 1000q-30-130 5-340 20 130 20 340Z"/><path d="m1430 740-105-43 68 62-109-16 136 60 109-77-91 37 76-92Z"/></g><g fill="#6be4e6" opacity=".5"><circle cx="960" cy="810" r="3"/><circle cx="1120" cy="650" r="2"/><circle cx="930" cy="710" r="2"/></g></svg>