<svg xmlns="http://www.w3.org/2000/svg" width="1600" height="1000" viewBox="0 0 1600 1000"><defs><linearGradient id="sky" x2="0" y2="1"><stop stop-color="#1c254e"/><stop offset=".65" stop-color="#b86a8d"/><stop offset="1" stop-color="#f1d4a5"/></linearGradient><radialGradient id="sun"><stop stop-color="#f1d4a5" stop-opacity=".5"/><stop offset="1" stop-color="#f1d4a5" stop-opacity="0"/></radialGradient><linearGradient id="mist" x2="0" y2="1"><stop stop-color="#f1d4a5" stop-opacity=".18"/><stop offset="1" stop-color="#1c254e" stop-opacity="0"/></linearGradient></defs><rect width="1600" height="1000" fill="url(#sky)"/><g fill="#fff3e8"><circle cx="663" cy="154" r="1.2" opacity="0.23"/><circle cx="1097" cy="96" r="1.1" opacity="0.23"/><circle cx="1039" cy="219" r="0.7" opacity="0.46"/><circle cx="143" cy="246" r="0.7" opacity="0.45"/><circle cx="1158" cy="126" r="1.9" opacity="0.58"/><circle cx="1193" cy="63" r="1.4" opacity="0.44"/><circle cx="452" cy="47" r="1.4" opacity="0.28"/><circle cx="858" cy="147" r="1.4" opacity="0.54"/><circle cx="1147" cy="185" r="0.7" opacity="0.54"/><circle cx="384" cy="381" r="0.7" opacity="0.63"/><circle cx="1155" cy="61" r="1.5" opacity="0.50"/><circle cx="1088" cy="437" r="1.7" opacity="0.48"/><circle cx="928" cy="370" r="1.0" opacity="0.68"/><circle cx="1431" cy="249" r="0.7" opacity="0.38"/><circle cx="1013" cy="351" r="1.6" opacity="0.37"/><circle cx="149" cy="120" r="1.3" opacity="0.30"/><circle cx="700" cy="155" r="1.9" opacity="0.45"/><circle cx="1368" cy="79" r="1.7" opacity="0.54"/><circle cx="642" cy="348" r="1.6" opacity="0.56"/><circle cx="1187" cy="467" r="0.7" opacity="0.26"/><circle cx="552" cy="485" r="1.6" opacity="0.24"/><circle cx="1497" cy="317" r="1.5" opacity="0.80"/><circle cx="912" cy="291" r="1.6" opacity="0.73"/><circle cx="710" cy="23" r="1.9" opacity="0.41"/><circle cx="1251" cy="119" r="1.3" opacity="0.33"/><circle cx="588" cy="132" r="1.6" opacity="0.44"/><circle cx="1016" cy="82" r="0.8" opacity="0.44"/><circle cx="569" cy="140" r="1.7" opacity="0.72"/><circle cx="570" cy="425" r="2.0" opacity="0.61"/><circle cx="779" cy="236" r="0.8" opacity="0.31"/><circle cx="475" cy="238" r="0.6" opacity="0.70"/><circle cx="373" cy="269" r="1.0" opacity="0.29"/><circle cx="1094" cy="378" r="1.5" opacity="0.39"/><circle cx="257" cy="527" r="1.9" opacity="0.59"/><circle cx="1515" cy="55" r="1.2" opacity="0.72"/><circle cx="1393" cy="572" r="1.1" opacity="0.44"/><circle cx="212" cy="493" r="1.5" opacity="0.24"/><circle cx="137" cy="213" r="1.2" opacity="0.27"/><circle cx="1230" cy="53" r="0.7" opacity="0.54"/><circle cx="1098" cy="103" r="1.9" opacity="0.57"/><circle cx="144" cy="212" r="1.5" opacity="0.29"/><circle cx="516" cy="355" r="1.4" opacity="0.48"/><circle cx="236" cy="499" r="2.0" opacity="0.48"/><circle cx="990" cy="319" r="0.7" opacity="0.26"/><circle cx="701" cy="271" r="1.3" opacity="0.62"/><circle cx="1057" cy="23" r="0.9" opacity="0.77"/><circle cx="740" cy="150" r="1.6" opacity="0.75"/><circle cx="1552" cy="540" r="1.0" opacity="0.59"/><circle cx="186" cy="267" r="1.3" opacity="0.74"/><circle cx="728" cy="228" r="1.3" opacity="0.67"/><circle cx="675" cy="228" r="1.5" opacity="0.67"/><circle cx="1553" cy="199" r="1.7" opacity="0.69"/><circle cx="1515" cy="232" r="0.9" opacity="0.50"/><circle cx="1497" cy="29" r="2.0" opacity="0.67"/><circle cx="967" cy="265" r="0.9" opacity="0.56"/><circle cx="705" cy="457" r="1.7" opacity="0.63"/><circle cx="715" cy="373" r="0.7" opacity="0.26"/><circle cx="962" cy="201" r="1.1" opacity="0.49"/><circle cx="1249" cy="1" r="1.3" opacity="0.59"/><circle cx="1317" cy="86" r="1.8" opacity="0.27"/><circle cx="795" cy="204" r="1.3" opacity="0.31"/><circle cx="1302" cy="340" r="0.7" opacity="0.77"/><circle cx="1478" cy="405" r="1.2" opacity="0.65"/><circle cx="173" cy="162" r="0.8" opacity="0.28"/><circle cx="309" cy="604" r="1.9" opacity="0.68"/><circle cx="299" cy="626" r="1.8" opacity="0.79"/><circle cx="1346" cy="358" r="0.8" opacity="0.53"/><circle cx="43" cy="14" r="1.7" opacity="0.64"/><circle cx="210" cy="539" r="1.6" opacity="0.28"/><circle cx="398" cy="216" r="0.6" opacity="0.33"/><circle cx="1026" cy="246" r="1.7" opacity="0.40"/><circle cx="1114" cy="429" r="1.8" opacity="0.24"/><circle cx="1515" cy="362" r="1.9" opacity="0.60"/><circle cx="1058" cy="430" r="1.8" opacity="0.73"/><circle cx="267" cy="544" r="0.8" opacity="0.51"/><circle cx="901" cy="187" r="1.5" opacity="0.67"/><circle cx="306" cy="176" r="0.8" opacity="0.57"/><circle cx="246" cy="569" r="0.7" opacity="0.61"/><circle cx="1086" cy="568" r="1.3" opacity="0.67"/><circle cx="1147" cy="58" r="0.9" opacity="0.37"/><circle cx="1581" cy="100" r="1.3" opacity="0.54"/><circle cx="1556" cy="64" r="1.2" opacity="0.57"/><circle cx="1035" cy="620" r="1.3" opacity="0.62"/><circle cx="926" cy="520" r="1.3" opacity="0.49"/><circle cx="507" cy="535" r="1.8" opacity="0.77"/><circle cx="531" cy="572" r="1.8" opacity="0.32"/><circle cx="916" cy="140" r="1.2" opacity="0.44"/><circle cx="647" cy="74" r="1.5" opacity="0.46"/><circle cx="435" cy="310" r="1.7" opacity="0.74"/><circle cx="316" cy="374" r="0.8" opacity="0.73"/></g><circle cx="1100" cy="350" r="450" fill="url(#sun)"/><circle cx="1100" cy="340" r="158" fill="#f1d4a5" opacity=".88"/><path d="M0 640 160 560 230 596 420 390 560 568 690 480 850 600 1010 468 1270 650 1410 490 1600 610V1000H0Z" fill="#1c254e" opacity=".45"/><path d="M0 770 130 680 260 730 460 590 640 790 820 620 990 790 1190 650 1380 770 1600 655V1000H0Z" fill="#171a31" opacity=".68"/><path d="M0 840q280-150 610-30t990-20v210H0Z" fill="url(#mist)"/><path d="M1160 410q-80-18-88-65l-16-92 60 52-12-73 52 67q33-20 67 6l56-65-20 87 64-38-38 72q-23 37-78 44l-6 37 29 30-37-9-27 13 9-39z" fill="#1b1834"/><g fill="none" stroke="#f1d4a5" stroke-width="2" opacity=".4"><path d="M660 520q280-50 720 0M350 580q330-30 610 10M900 690q200-20 470 7"/></g><path d="M0 946q300-140 620-32t980-58v144H0Z" fill="#101321"/><g transform="translate(1020 695)"><path d="M-22 210 5 68 34 61 62 207 12 189Z" fill="#191521"/><path d="M3 77-32 161-12 166 25 96 55 149 67 139 37 68Z" fill="#282034"/><path d="M17 64V49h16v18" fill="#b98c86"/><ellipse cx="23" cy="30" rx="21" ry="27" fill="#cda794"/><path d="M0 34-3 12 15-5 39 0 48 27 34 16 27 29 20 11 10 33Z" fill="#171523"/><path d="M6 194-2 257 12 257 24 206 34 254 47 254 41 194" fill="#12111b"/><path d="M-1 69q-45-1-82-40l-28 7q36 68 124 57" fill="#b86a8d"/><path d="m57 145 100-97" stroke="#c0bdd4" stroke-width="4"/><path d="m46 143 23 18" stroke="#f1d4a5" stroke-width="6"/><path d="M4 79 22 84 9 175" stroke="#f1d4a5" stroke-width="2" fill="none" opacity=".6"/></g><g fill="#11131f"><path d="M1420 1000q-30-130 5-340 20 130 20 340Z"/><path d="m1430 740-105-43 68 62-109-16 136 60 109-77-91 37 76-92Z"/></g><g fill="#f1d4a5" opacity=".5"><circle cx="960" cy="810" r="3"/><circle cx="1120" cy="650" r="2"/><circle cx="930" cy="710" r="2"/></g></svg>